Patient4_TMGait_0pt7_02_right_20_EMG.mot
version=1
nRows=40
nColumns=33
inDegrees=no
endheader
time	1LAddLong	2LGlutMax	3LGlutMed	4LIliopsoas	5LSemiMemb	6LBicFemLong	7LRecFem	8LVastMed	9LVastLat	10LGasMed	11LTibAnt	12lTibPost	13LPeroneusLong	14LSol	15LExtDigLong	16LFlexDigLong	17RAddLong	18RGlutMax	19RGlutMed	20RIliopsoas	21RSemiMemb	22RBicFemLong	23RRecFem	24RVastMed	25RVastLat	26RGasMed	27RTibAnt	28RTibPost	29RPeroneusLong	30RSol	31RExtDigLong	32RFlexDigLong
22.09	0.012207	-0.55786	-0.15839	0.008087	0.09491	0.26154	0.14282	-0.004883	0.068665	0.012817	-0.018921	0.00473	0.070648	-0.17395	-0.23025	0.003052	0.057526	-0.18097	0.25513	-0.00351	0.068359	0.006561	0.25269	-0.016022	0.016632	0.010529	0.093842	-0.006561	-0.19134	-0.048218	-0.002747	-0.013885
22.091	-0.011902	-0.5481	-0.08606	-0.004578	0.051117	0.27268	0.17044	0.005035	0.043488	0.15595	0.031128	-0.002747	0.25665	-0.23483	-0.13107	-0.009918	-0.036774	-0.16632	0.3122	-0.078125	0.054932	0.023499	0.10971	-0.063019	-0.002594	0.011902	0.064545	-0.009003	-0.14862	0.049744	-0.003815	-0.008392
22.092	-0.081177	-0.55786	0.053253	-0.004272	0.001831	0.1445	0.18677	0.000305	-0.068054	0.29511	0.086517	0.004578	0.69488	-0.08667	0.057678	-0.01709	-0.11673	-0.16571	0.31204	-0.032654	0.04837	0.049133	0.082397	-0.085144	-0.015869	0.003662	0.10559	-0.010223	-0.13748	0.11841	-0.003052	-0.011139
22.093	-0.04303	-0.54184	0.065613	0.022888	-0.012817	-0.1088	0.18753	0.013885	-0.027771	0.22522	-0.090332	-0.005493	0.50247	0.042114	0.046082	-0.008698	-0.13794	-0.1828	0.28153	0.09613	0.055542	0.067444	0.10605	-0.11658	-0.009766	0.009155	0.11536	-0.00824	0.13657	0.06134	-0.004272	-0.012054
22.094	0.009155	-0.52841	-0.091858	0.015717	0.027161	-0.21133	0.17822	0.009766	-0.036926	0.092926	-0.17136	0.002899	-0.19363	0.070801	0.08667	0.003815	-0.12177	-0.20126	0.24796	0.23956	0.058441	0.08606	0.040588	-0.10773	-0.01709	0.002441	0.11627	-0.007629	0.40924	0.043793	-0.003662	-0.011902
22.095	0.027771	-0.48752	-0.10849	0.000458	0.068665	-0.17578	0.15686	0.010986	-0.042267	0.04425	-0.15411	0.019073	-0.41596	0.13702	0.11429	-0.006866	-0.08728	-0.25726	0.27268	0.35584	0.063934	0.11749	0.065308	-0.1326	0.012512	0.00885	0.14175	-0.008392	0.19272	0.060883	-0.004578	-0.012817
22.096	0.032806	-0.46799	-0.080566	0.016022	0.030823	-0.072479	0.19211	0.013733	-0.089722	0.046234	-0.12741	0.016022	0.14618	-0.007019	-0.029449	-0.005646	-0.038452	-0.21088	0.37796	0.30121	0.076447	0.14221	0.002136	-0.13062	0.001678	0.001984	0.15106	-0.006561	-0.24689	0.034027	-0.008087	-0.00824
22.097	-0.016785	-0.47592	0.15396	0.023651	-0.027161	-0.090485	0.17731	0.013885	-0.1561	0.018005	-0.048218	0.006409	0.19043	-0.16525	-0.039673	-0.014801	-0.012817	-0.19577	0.3656	0.11734	0.074615	0.12039	-0.015564	-0.13931	0.000153	-0.002594	0.095673	-0.00885	-0.62958	-0.010529	-0.006714	-0.019684
22.098	-0.028687	-0.47897	0.061035	0.010986	-0.042114	-0.13214	0.13046	0.01297	-0.12833	-0.023804	0.072937	0.003967	-0.18051	-0.09964	0.05127	-0.008698	-0.000916	-0.1947	0.35584	0.024567	0.09201	0.12863	0.070038	-0.11734	0.006256	-0.011749	-0.041656	-0.002594	-0.1207	-0.02243	-0.003815	-0.023651
22.099	0	-0.45395	0.14679	0.007324	0.039978	-0.049744	0.062561	0.014496	-0.084076	0.029144	0.18341	0.004883	-0.32272	0.019226	-0.01297	-0.008087	-0.024414	-0.23575	0.33936	-0.045776	0.10788	0.14542	0.13779	-0.10757	-0.002136	-0.012054	-0.24017	-0.003357	0.1178	-0.00473	-0.00061	-0.018921
22.1	0.021667	-0.41382	0.10117	0.019226	0.055695	-0.036926	-0.004578	0.010376	-0.006561	0.031586	0.13306	0.008087	0.016174	0.045624	-0.021973	-0.007324	-0.011902	-0.27268	0.60013	-0.063477	0.092163	0.14526	0.20905	-0.059967	0.015106	-0.016785	-0.18448	-0.004578	-0.017242	-0.013123	-0.001068	-0.023956
22.101	0.013733	-0.40878	0.02243	-0.002441	0.001221	0.038147	0.022736	0.008392	0.12497	-0.010376	0.034637	-0.009613	0.73639	0.034485	0.22659	-0.005493	0.002289	-0.28153	0.21591	-0.074921	0.092163	0.14618	0.1947	-0.04303	-0.008087	-0.014343	0.034943	-0.005341	-0.10117	-0.040894	-0.003662	-0.019684
22.102	0.009918	-0.39154	-0.029449	-0.006561	0.011139	0.009308	0.11078	0.002136	0.15701	-0.026245	-0.017242	0.001221	0.3685	-0.02655	0.53741	-0.007935	0.003204	-0.26504	0.079498	-0.12085	0.073853	0.14069	0.24826	-0.044098	0.017242	-0.015259	0.099487	-0.00824	-0.14008	-0.06424	-0.00412	-0.014496
22.103	-0.003052	-0.39093	-0.054321	0.007782	0.030823	0.023651	0.17075	0.009613	0.13534	-0.045624	0.034637	0.00351	-0.17899	-0.011597	-0.081482	-0.014038	0.040283	-0.26733	0.15717	-0.071564	0.065002	0.14465	0.17044	-0.025177	0.010071	-0.012207	0.052795	0.000153	-0.064697	-0.05661	-0.00412	-0.014801
22.104	-0.023804	-0.33417	0.013885	0.019989	-0.085754	-0.075684	0.14893	0.019379	0.069885	-0.006409	0.15015	0.001984	-0.21896	-0.024109	-0.083618	-0.010071	0.044403	-0.24704	0.094604	0.001984	0.050354	0.11978	0.084534	-0.10147	0.001678	-0.018616	0.16327	-0.004578	0.13184	0.012054	-0.003662	-0.018616
22.105	-0.029297	-0.27908	-0.076752	0.01709	-0.20371	-0.38284	0.12833	0.009155	0.075684	-0.016937	0.1564	0.016937	0.48599	-0.016632	-0.005493	-0.005646	0.021973	-0.23926	-0.065918	0.072479	0.05661	0.11414	0.064697	-0.1152	-0.004272	-0.010071	0.28702	-0.006104	0.17777	-0.045013	-0.001984	-0.022125
22.106	-0.009308	-0.2829	-0.084076	-0.006561	-0.23804	-0.39185	0.10605	0.009918	0.094757	-0.049133	0.13336	0.004578	0.59662	0.088501	-0.1033	-0.010529	-0.011444	-0.26794	-0.033569	0.10086	0.028381	0.098877	0.10971	-0.07843	-0.010223	-0.012207	0.15228	-0.011444	0.088043	-0.07309	-0.00351	-0.014954
22.107	0.017853	-0.31342	-0.066376	0.002441	-0.11032	-0.20599	0.10193	0.010071	0.092316	-0.11856	0.08728	-0.003052	0.03479	0.21774	-0.28137	-0.014801	-0.008698	-0.28686	0.04303	0.097198	0.027161	0.11139	0.14374	-0.13046	0.00885	-0.024414	0.10376	-0.006561	0.00412	-0.009613	-0.004425	-0.008698
22.108	0.028687	-0.27573	-0.060577	0.00824	0.16403	-0.12863	0.083313	-0.003357	0.11688	-0.13672	-0.016174	0.006714	-0.24033	0.14816	-0.19791	-0.008698	-0.011139	-0.2536	0.18662	0.049591	0.032654	0.11231	0.10971	-0.13626	0.020142	-0.017548	0.076141	-0.004883	-0.037384	0.013275	0	-0.011444
22.109	0.028381	-0.26657	-0.03952	0.009155	0.2124	0.015106	0.099182	0.003967	0.13046	-0.081329	-0.040741	0.005341	-0.26291	0.10666	-0.21362	0.002594	-0.006256	-0.20676	0.22781	-0.013123	0.032196	0.10529	0.077209	-0.097351	-0.004578	-0.017548	0.1326	-0.00824	-0.096283	0.013275	-0.002136	-0.007324
22.11	0.016174	-0.31509	0.010986	-0.005493	0.1297	0.083771	0.1503	-0.003662	0.10269	-0.033569	-0.084839	0.002289	-0.14801	-0.003052	-0.401	-0.001526	0.00946	-0.22659	0.27603	-0.068817	0.035248	0.11566	0.05127	-0.078583	-0.009003	-0.016022	0.4454	-0.004578	0.089874	-0.008545	-0.002747	-0.00946
22.111	0.010834	-0.25971	-0.031738	-0.010529	0.068817	0.12329	0.18753	-0.006409	0.048828	-0.0177	-0.16342	0.003815	-0.15182	-0.044556	-0.067444	-0.0177	0.033722	-0.21271	0.20172	-0.026093	0.048676	0.10132	0.035248	-0.092468	-0.012054	-0.008545	0.51758	-0.006256	0.063934	-0.045013	-0.002899	-0.007782
22.112	0.014038	-0.2327	-0.1004	0.007629	-0.063782	0.055237	0.17761	-0.002899	0.005341	-0.042572	-0.12894	0.002747	-0.31158	-0.11063	0.27939	-0.023804	0.036163	-0.22232	0.21088	-0.084229	0.071411	0.081024	-0.05127	-0.10147	-0.010834	-0.002441	0.26672	-0.004578	-0.006256	-0.073547	-0.001526	-0.006561
22.113	0.012665	-0.21988	-0.072327	0.012207	-0.042572	-0.048218	0.19714	-0.002289	-0.092468	-0.075226	-0.074005	-0.001068	-0.039063	-0.16007	0.30884	-0.022736	0.048981	-0.20554	0.31891	-0.099792	0.049896	0.093994	0.022736	-0.10086	-0.039215	-0.011139	-0.14557	-0.00412	-0.084991	-0.019073	-0.004272	-0.005341
22.114	0.014648	-0.19394	0.11322	0.010376	0.011597	-0.032349	0.21118	0.001068	-0.11017	-0.050659	-0.041199	0.005646	-0.14069	-0.23041	0.16357	-0.000916	0.094604	-0.17349	0.4422	-0.10315	0.00412	0.095825	0.11017	-0.15106	-0.056458	-0.011902	-0.077209	-0.009613	-0.15198	0.068665	-0.007324	-0.010834
22.115	0.018311	-0.16678	0.039063	0.013123	0.033569	0.031586	0.177	0.006866	-0.086517	0.020294	-0.007477	0.000458	0.1152	-0.16342	0.018768	-0.008392	0.11551	-0.17838	0.34241	-0.061493	0.006561	0.071564	0.15106	-0.2034	-0.04776	-0.025635	-0.21164	-0.00473	-0.068054	0.10773	-0.007019	-0.013885
22.116	0.01358	-0.15717	0.019989	-0.02533	0.082092	0.049591	0.14847	0.000763	-0.058899	0.052185	-0.033569	0.005493	0.11643	-0.072937	-0.020142	-0.00824	0.099182	-0.21011	0.1091	0.016785	0.040741	0.029297	0.26611	-0.21683	-0.051575	-0.02243	-0.121	-0.003052	0.12314	0.1004	-0.003815	-0.002136
22.117	0.010986	-0.15976	-0.014801	-0.016937	0.10284	0.10407	0.14618	0.007935	-0.052643	0.095215	-0.068512	-0.003052	0.37659	-0.00412	-0.078583	-0.023804	0.068054	-0.17487	0.10391	0.071411	0.049133	0.036621	0.24933	-0.15808	-0.027924	-0.001221	-0.12528	-0.002747	0.27817	0.041046	-0.006104	-0.009155
22.118	0.014191	-0.12039	-0.02182	-0.02533	0.046234	0.099792	0.14099	0.006256	-0.033112	0.12573	-0.085602	0.009308	0.18631	-0.089722	-0.040741	-0.019379	0.025787	-0.17685	0.040588	0.059967	0.03006	0.057526	0.27573	-0.10086	-0.019836	-0.003357	0.021667	-0.003815	0.20203	-0.016632	-0.002747	0.003204
22.119	0.013275	-0.090332	-0.16098	-0.023499	0.075684	0.13641	0.10239	0.003204	-0.029602	0.076294	-0.094604	0.005341	0.27176	-0.13596	0.030518	-0.004272	-0.009766	-0.16892	0.15701	0.036163	-0.035706	0.075531	0.22324	-0.071411	-0.024872	-0.009613	0.083313	-0.001373	0.086212	0.007172	-0.004425	-0.005798
22.12	0.004578	-0.0914	-0.16159	0.016632	0.097656	0.16708	0.094452	0.010834	-0.045166	0.098572	-0.011597	0.002441	0.26108	-0.25436	0.025635	-0.01358	-0.010223	-0.12436	0.28473	-0.005493	-0.02655	0.11032	0.036469	-0.082245	-0.031738	-0.014191	0.12421	0.000305	0.062256	0.007172	-0.003662	-0.009308
22.121	0.007172	-0.088959	-0.12863	0.010223	0.062103	0.10178	0.075378	0.010376	0.010376	0.16129	0.066681	0.001984	-0.054474	-0.35538	-0.001068	-0.011292	0.011597	-0.15167	0.21851	-0.038452	-0.010986	0.088806	-0.10605	-0.10086	-0.016022	-0.01709	-0.28671	-0.006561	0.13687	-0.000763	-0.000305	-0.010223
22.122	-0.001678	-0.025482	0.074463	-0.008392	0.017548	0.051727	0.058136	0.024109	0.062103	0.10178	0.096588	0.003662	0.000916	-0.29816	0.001526	-0.007477	0.069885	-0.14389	0.24643	-0.06546	-0.007782	0.088348	-0.23956	-0.098724	-0.030975	-0.014801	-0.4982	-0.002441	0.14984	-0.007324	-0.006714	-0.009155
22.123	0.00412	-0.082245	0.046539	0.02655	-0.048065	-0.025787	0.056152	0.004883	0.11261	0.067444	0.027161	0.007019	-0.068054	-0.11597	-0.020752	-0.016327	0.11917	-0.16342	0.23727	-0.10284	0.006104	0.072632	-0.31937	-0.12833	-0.033875	-0.01358	-0.25681	-0.00351	0.14572	-0.009308	-0.003967	0
22.124	0	-0.078888	-0.023041	0.019226	-0.079498	-0.057526	0.094757	-0.004578	0.20126	0.02121	-0.03479	0.005951	-0.054779	-0.04364	-0.037384	-0.02182	0.13092	-0.18982	0.19318	-0.13992	0.005646	0.056	-0.215	-0.1178	-0.036316	-0.010376	-0.26245	-0.008545	0.078735	-0.063171	-0.003662	-0.002136
22.125	-0.006866	-0.080566	0.042267	0.01358	-0.085602	-0.10208	0.10696	-0.003052	-0.040283	-0.12604	-0.036469	0.007477	-0.008392	-0.066833	0.037842	-0.014038	0.097046	-0.16235	0.13184	-0.056763	0.024414	0.063324	-0.060425	-0.087585	-0.021362	-0.006866	-0.067902	-0.005035	0.001068	-0.056458	-0.00351	-0.005341
22.126	-0.011444	-0.053253	-0.015564	-0.007019	-0.053711	-0.090942	0.14786	-0.000763	-0.16876	-0.13901	-0.016327	0.007935	-0.026093	-0.081787	0.12741	-0.00946	0.045776	-0.11322	0.098724	0.056152	0.023346	0.11093	0.026398	-0.12589	-0.026703	-0.009308	-0.012817	-0.005493	0.013885	-0.042725	-0.000305	-0.001068
22.127	-0.005646	-0.044098	0.087585	0.03067	0.072937	-0.089569	0.1532	-0.001068	-0.14328	-0.1387	0.019379	0.005035	0.055695	0.011292	0.15991	-0.015411	-0.01236	-0.15091	0.035248	0.14923	0.050507	0.14099	0.090485	-0.082245	-0.036774	-0.008392	-0.12817	-0.001373	0.059052	0.010834	-0.002899	-0.027313
22.128	0.008545	-0.090942	0.021667	0.011597	0.036316	0.053253	0.11673	0.002289	-0.079498	-0.10727	-0.001373	0.005341	-0.026093	-0.025635	0.10834	-0.017548	-0.046082	-0.21362	0.057373	0.14389	0.061493	0.17731	-0.025177	-0.002899	0.004425	-0.003357	-0.10712	-0.002289	0.041351	0.044403	-0.003662	-0.034637
22.129	0.003357	-0.10056	-0.035858	0.025635	0.013733	0.19119	0.11093	-0.004425	-0.046692	-0.073853	0.002899	0.008392	-0.39124	-0.12268	0.056	-0.01358	-0.083771	-0.12711	0.057373	0.028839	0.02533	0.14893	-0.020599	-0.042572	-0.006256	-0.001526	-0.012207	-0.002289	-0.064545	0.006104	-0.009155	-0.033112
